<?xml version="1.0" encoding="UTF-8"?><svg id="_レイヤー_2" xmlns="http://www.w3.org/2000/svg" viewBox="0 0 750 227"><defs><style>.cls-1{fill:#90d7f5;}.cls-1,.cls-2,.cls-3{stroke-width:0px;}.cls-2{fill:#474747;}.cls-3{fill:#1a1a1a;}</style></defs><g id="DESIGN"><polygon class="cls-1" points="750 197.06 420.08 197.06 376.38 227 330.25 197.06 0 197.06 0 0 750 0 750 197.06"/><path class="cls-3" d="M259.98,59.99h-35.71v-3.95h15.39v-2.28h4.9v2.28h15.43v3.95ZM233.46,86.39v-9.35h17.52v8.25h2.05c.53,0,.84-.19.84-.91v-9.08h-23.37v14.36h-4.79v-17.93h32.9v14.55c0,2.13-1.18,3.38-2.81,3.38h-6l-.61-3.27h-15.73ZM255.15,70.06h-26.1v-8.66h26.1v8.66ZM250.44,64.47h-16.76v2.39h16.76v-2.39ZM246.53,80.28h-8.66v2.77h8.66v-2.77Z"/><path class="cls-3" d="M267.85,61.17c-.08,7.83-.61,10.41-1.18,12.46l-3.12-1.9c.91-2.89,1.22-7.87,1.25-10.6l3.04.04ZM279.4,72.56l-.08.15-3.76-2.93c.65-.95,1.48-2.2,2.24-3.99l-2.43,1.52c-.61-2.13-.99-3.23-1.86-5.13v27.55h-4.6v-35.87h4.6v7.26l2.43-1.48c1.37,2.36,2.2,4.83,2.28,5.02,1.44-3.95,1.71-7.6,1.82-9.31l4.52.72c-.11,1.33-.23,2.7-.87,5.58h2.93v-7.79h4.75v7.79h7.98v4.41h-7.98v6.38h7.07v4.33h-7.07v7.14h8.62v4.41h-24.32v-4.41h10.94v-7.14h-7.22v-4.22ZM286.62,72.45v-6.38h-4.22c-1.18,3.5-2.39,5.62-2.93,6.38h7.14Z"/><path class="cls-3" d="M318.65,65.53c-.23-.61-.38-1.1-.87-2.17-4.37.61-9.19,1.14-13.6,1.33l-.38-4.1h2.39c.34-.72,1.82-3.95,2.51-6.73l4.67.49c-.42,1.22-.84,2.32-2.77,6.12.61-.04,4.6-.42,5.51-.49-.8-1.48-1.33-2.24-1.86-3.08l3.72-1.71c2.09,2.96,3.53,5.21,4.86,8.47l-4.18,1.86ZM305.47,66.29h15.05v20.29c0,2.62-2.2,3.08-2.77,3.08h-5.01l-.76-4.29h3.46c.46,0,.72-.3.72-.72v-2.51h-6.27v7.52h-4.41v-23.37ZM309.88,70.06v2.66h6.27v-2.66h-6.27ZM309.88,75.95v2.81h6.27v-2.81h-6.27ZM328.34,53.87v4.71c2.13-.61,6.31-2.47,8.32-3.8l2.58,3.46c-2.7,1.63-6.99,3.19-10.9,4.18v3.12c0,.8.49.91.99.91h4.45c.91,0,1.52,0,1.6-4.29l4.45,1.22c-.19,5.09-1.14,7.29-4.14,7.29h-8.55c-3.38,0-3.57-2.7-3.57-3.12v-13.68h4.79ZM323.67,71.73h4.67v4.45c2.39-.87,5.13-2.05,7.9-3.99l2.77,3.53c-4.1,2.47-9.23,3.99-10.68,4.41v3.84c0,.53.19,1.14,1.06,1.14h4.29c1.14,0,1.33-.3,1.63-4.98l4.48,1.18c-.53,6.04-1.1,8.06-4.67,8.06h-8.28c-1.98,0-3.19-1.18-3.19-3.27v-14.36Z"/><path class="cls-3" d="M347.38,71.99c-1.25,1.56-1.75,2.01-2.47,2.66l-1.6-6.12c5.39-6.19,6.19-12.73,6.38-14.74l4.64.53c-.19,1.6-.53,4.6-2.39,9.27v26.1h-4.56v-17.71ZM352.4,78.98c4.86-3.95,7.9-8.4,10.49-14.36h-8.93v-4.64h10.18v-6.08h4.79v6.08h10.71v4.64h-9.35c.49,1.22,3.8,8.81,9.96,13.98l-2.43,5.05c-1.44-1.44-5.74-5.7-8.89-12.96v8.62h5.01v4.45h-5.01v5.93h-4.79v-5.93h-4.98v-4.45h4.98v-9c-2.09,5.09-5.13,9.76-9.12,13.56l-2.62-4.9Z"/><path class="cls-3" d="M388.42,76.74c-.15,4.79-.57,7.67-1.41,10.94l-3.65-1.67c.84-3,1.29-6.73,1.33-9.61l3.72.34ZM383.52,70.36c.65-.04,1.79-.08,3.12-.15.49-.61,1.33-1.71,1.9-2.55-1.79-2.24-3.15-3.69-5.13-5.13l2.2-3.76c.61.42.8.57,1.1.8,1.14-1.82,2.17-3.72,3.08-5.7l4.25,1.37c-1.86,3.5-3.65,5.93-4.45,6.99.27.3.57.61,1.52,1.79,1.82-2.66,2.96-4.64,3.88-6.19l4.1,1.56c-2.28,3.76-4.9,7.26-7.67,10.64.57-.04,3.46-.19,4.14-.23-.34-1.18-.49-1.63-.8-2.55l3.69-1.29c1.25,3.34,1.56,4.14,2.39,7.86l-4.1,1.29c-.11-.65-.11-.72-.34-1.75-.53.08-2.17.27-2.54.3v16.11h-4.22v-15.73c-4.18.3-4.64.34-6.04.46l-.08-4.14ZM398.26,75.87c.76,2.2,1.14,5.21,1.44,7.71l-3.65.8c-.46-4.98-.87-6.69-1.18-7.79l3.38-.72ZM401.04,55.12h16.68v29.18h1.79v4.45h-21.69v-4.45h3.23v-29.18ZM405.63,59.53v5.24h7.49v-5.24h-7.49ZM405.63,68.95v5.17h7.49v-5.17h-7.49ZM405.63,78.34v5.97h7.49v-5.97h-7.49Z"/><path class="cls-3" d="M436.19,85.75c2.96-1.25,6.5-3.12,9.65-6.38-2.05-6.08-2.32-11.93-2.51-15.5h-12.5v3.88h10.26c.04,3.27-.23,8.85-.57,12.12-.23,2.36-.95,5.28-4.67,5.28h-3.76l-.8-4.79h3.19c.49,0,1.03-.19,1.25-.91.57-1.75.61-6.35.61-7.45h-5.51v2.81c0,2.47-.42,5.47-.84,7.71-.57,3.04-1.67,5.24-2.81,7.26l-4.03-3.61c2.05-3.5,3.04-7.52,3.04-11.59v-15.2h16.95c-.04-.8-.23-4.71-.27-5.62h4.83c0,1.29,0,2.13.08,5.62h6c-1.94-1.71-2.66-2.32-4.48-3.34l3.19-2.66c1.82.99,2.89,1.75,5.51,3.99l-2.24,2.01h3.38v4.48h-11.17c.3,3.61.68,7.18,1.44,10.71.99-1.79,2.13-4.14,3.27-8.89l4.56,1.52c-1.56,5.4-3.5,9.42-6.04,13.03.68,1.41,1.86,3.95,2.89,3.95.68,0,1.18-.84,1.44-1.41.23-.49.95-3.23,1.18-4.1l3.38,3.04c-1.14,4.64-2.28,8.02-5.7,8.02s-5.59-3.95-6.5-5.62c-3.31,3.23-6.46,4.83-8.62,5.81l-3.08-4.18Z"/><path class="cls-3" d="M480.46,60.25v3.91h-16.91v-3.91h16.91ZM479.28,54.71v3.72h-14.48v-3.72h14.48ZM479.28,65.88v3.76h-14.48v-3.76h14.48ZM479.28,71.58v3.72h-14.48v-3.72h14.48ZM479.28,77.31v11.82h-14.48v-11.82h14.48ZM475.18,80.88h-6.16v4.37h6.16v-4.37ZM487.37,89.74v-20.67h-6.95v-4.79h6.95v-10.33h4.83v10.33h7.26v4.79h-7.26v20.67h-4.83Z"/><path class="cls-3" d="M237.18,144.81c-4.14-5.13-6.69-11.4-6.69-18.01s2.55-12.88,6.69-18.01h4.22c-4.1,5.09-6.46,11.44-6.46,18.01s2.36,12.88,6.46,18.01h-4.22Z"/><path class="cls-3" d="M259.37,141.24h-5.36v-25.42h-9.54v-4.9h24.43v4.9h-9.54v25.42Z"/><path class="cls-3" d="M280.08,133.79l-2.58,7.45h-5.93l11.21-30.32h6.88l11.21,30.32h-5.93l-2.58-7.45h-12.27ZM290.76,129.2l-4.52-13.03-4.56,13.03h9.08Z"/><path class="cls-3" d="M311.85,110.92l14.78,22.83v-22.83h5.36v30.32h-6.38l-14.78-22.83v22.83h-5.36v-30.32h6.38Z"/><path class="cls-3" d="M344.64,110.92v30.32h-5.47v-30.32h5.47Z"/><path class="cls-3" d="M364.78,141.24h-5.36v-25.42h-9.54v-4.9h24.43v4.9h-9.54v25.42Z"/><path class="cls-3" d="M385.49,133.79l-2.58,7.45h-5.93l11.21-30.32h6.88l11.21,30.32h-5.93l-2.58-7.45h-12.27ZM396.17,129.2l-4.52-13.03-4.56,13.03h9.08Z"/><path class="cls-3" d="M432.08,110.92v5.02l-14.67,25.3h-6l14.93-25.42h-16.38v-4.9h22.11Z"/><path class="cls-3" d="M458.94,132.24c0,5.74-4.98,9.61-10.94,9.61s-10.94-3.88-10.94-9.61c0-4.14,2.51-6.72,4.67-7.9-2.39-1.63-3.04-4.22-3.04-6,0-4.52,3.61-8.02,9.31-8.02s9.31,3.38,9.31,8.02c0,1.79-.68,4.37-3.04,6,2.17,1.18,4.67,3.76,4.67,7.9ZM453.59,132.08c0-2.17-1.63-4.83-5.58-4.83s-5.58,2.58-5.58,4.83c0,2.74,2.36,4.86,5.58,4.86s5.58-2.05,5.58-4.86ZM452.18,118.52c0-2.47-1.98-3.76-4.18-3.76s-4.18,1.29-4.18,3.76c0,1.82,1.18,3.8,4.18,3.8s4.18-1.9,4.18-3.8Z"/><path class="cls-3" d="M464.11,126.08c0-5.36.95-8.89,2.55-11.36,1.94-3.04,5.17-4.41,8.32-4.41,10.87,0,10.87,12.99,10.87,15.77s0,15.77-10.87,15.77-10.87-12.99-10.87-15.77ZM480.49,126.08c0-6.54-1.48-10.87-5.51-10.87-4.29,0-5.51,4.86-5.51,10.87,0,6.57,1.48,10.87,5.51,10.87s5.51-4.64,5.51-10.87Z"/><path class="cls-3" d="M490.14,144.81c4.1-5.13,6.46-11.44,6.46-18.01s-2.36-12.92-6.46-18.01h4.18c4.14,5.13,6.72,11.4,6.72,18.01s-2.58,12.88-6.69,18.01h-4.22Z"/><path class="cls-3" d="M511.5,125.7h35.64v4.56h-10.75v8.85c0,.84.49.84.99.84h4.18c.91,0,1.14-.08,1.18-5.77l4.52,1.37c-.15,6.69-.57,8.81-3.8,8.81h-8.51c-.65,0-3.34,0-3.34-2.77v-11.32h-5.24c-.76,11.25-9.23,13.79-13.11,14.74l-2.32-4.75c9.12-1.75,10.56-6.23,10.75-9.99h-10.18v-4.56ZM526.85,108.79h4.9v2.89h14.44v10.22h-4.79v-5.81h-24.2v5.81h-4.75v-10.22h14.4v-2.89ZM517.81,118.67h22.99v4.37h-22.99v-4.37Z"/><path class="cls-3" d="M558.39,141.05v3.57h-4.45v-17.06c-.76,1.06-1.06,1.41-1.82,2.2l-1.56-6.54c4.22-5.17,5.13-12.5,5.4-14.44l4.41.34c-.19,1.67-.49,4.79-1.98,9.23v22.26c2.62-4.03,2.66-8.32,2.66-10.26v-9.27h-1.25v-3.72h6.46v-2.51h-5.43v-3.8h5.43v-2.24h4.52v2.24h5.62v-2.24h4.48v2.24h5.47v3.8h-5.47v2.51h6.31v3.72h-21.92v9.04c0,5.24-.87,10.26-3.76,14.36l-3.12-3.46ZM585.94,123v18.54c0,1.9-.27,3.08-3.23,3.08h-3.5l-.68-3.88h2.01c1.06,0,1.25-.11,1.25-1.22v-2.17h-3.84v7.03h-3.8v-7.03h-3.84v7.26h-3.84v-21.62h19.45ZM570.32,126.42v2.28h3.84v-2.28h-3.84ZM570.32,131.86v2.36h3.84v-2.36h-3.84ZM570.78,114.87v2.51h5.62v-2.51h-5.62ZM577.96,126.42v2.28h3.84v-2.28h-3.84ZM577.96,131.86v2.36h3.84v-2.36h-3.84Z"/><path class="cls-3" d="M598.78,110.92l-.65,21.62h-4.41l-.65-21.62h5.7ZM593.16,135.81h5.51v5.43h-5.51v-5.43Z"/><path class="cls-2" d="M184.19,147.88h-35.45c-.77,0-1.43-.57-1.54-1.34l-9.77-69.85c-.12-.85.47-1.63,1.32-1.75.85-.12,1.63.47,1.75,1.32l9.58,68.51h32.75l9.58-68.51c.12-.85.9-1.44,1.75-1.32.85.12,1.44.9,1.32,1.75l-9.77,69.85c-.11.77-.76,1.34-1.54,1.34Z"/><path class="cls-2" d="M189.63,68.39h-46.33c-.86,0-1.55-.69-1.55-1.55v-3.06c0-3.96,3.22-7.19,7.19-7.19h35.07c3.96,0,7.19,3.22,7.19,7.19v3.06c0,.86-.7,1.55-1.55,1.55ZM144.85,65.29h43.23v-1.51c0-2.25-1.83-4.08-4.08-4.08h-35.07c-2.25,0-4.08,1.83-4.08,4.08v1.51Z"/><path class="cls-2" d="M170.3,59.7h-7.68c-.86,0-1.55-.69-1.55-1.55v-8.7c0-.86.7-1.55,1.55-1.55h7.68c.86,0,1.55.69,1.55,1.55v8.7c0,.86-.7,1.55-1.55,1.55ZM164.17,56.59h4.58v-5.59h-4.58v5.59Z"/><path class="cls-2" d="M189.63,65.63c-.86,0-1.55-.69-1.55-1.55v-7.85c0-2.88-2.35-5.23-5.23-5.23h-25.86c-.86,0-1.55-.69-1.55-1.55s.7-1.55,1.55-1.55h25.86c4.6,0,8.34,3.74,8.34,8.34v7.85c0,.86-.7,1.55-1.55,1.55Z"/><path class="cls-2" d="M198.3,78.03h-63.68c-.86,0-1.55-.7-1.55-1.55v-9.63c0-.86.7-1.55,1.55-1.55h63.68c.86,0,1.55.69,1.55,1.55v9.63c0,.86-.7,1.55-1.55,1.55ZM136.17,74.92h60.58v-6.53h-60.58v6.53Z"/><path class="cls-2" d="M142.13,78.03c-.86,0-1.55-.7-1.55-1.55v-9.63c0-.86.7-1.55,1.55-1.55s1.55.69,1.55,1.55v9.63c0,.86-.7,1.55-1.55,1.55Z"/><path class="cls-2" d="M150.19,78.03c-.86,0-1.55-.7-1.55-1.55v-9.63c0-.86.7-1.55,1.55-1.55s1.55.69,1.55,1.55v9.63c0,.86-.7,1.55-1.55,1.55Z"/><path class="cls-2" d="M158.25,78.03c-.86,0-1.55-.7-1.55-1.55v-9.63c0-.86.7-1.55,1.55-1.55s1.55.69,1.55,1.55v9.63c0,.86-.7,1.55-1.55,1.55Z"/><path class="cls-2" d="M166.31,78.03c-.86,0-1.55-.7-1.55-1.55v-9.63c0-.86.7-1.55,1.55-1.55s1.55.69,1.55,1.55v9.63c0,.86-.7,1.55-1.55,1.55Z"/><path class="cls-2" d="M174.37,78.03c-.86,0-1.55-.7-1.55-1.55v-9.63c0-.86.7-1.55,1.55-1.55s1.55.69,1.55,1.55v9.63c0,.86-.7,1.55-1.55,1.55Z"/><path class="cls-2" d="M182.44,78.03c-.86,0-1.55-.7-1.55-1.55v-9.63c0-.86.7-1.55,1.55-1.55s1.55.69,1.55,1.55v9.63c0,.86-.7,1.55-1.55,1.55Z"/><path class="cls-2" d="M190.5,78.03c-.86,0-1.55-.7-1.55-1.55v-9.63c0-.86.7-1.55,1.55-1.55s1.55.69,1.55,1.55v9.63c0,.86-.7,1.55-1.55,1.55Z"/><path class="cls-2" d="M186.11,86.96h-3.45c-.86,0-1.55-.69-1.55-1.55s.7-1.55,1.55-1.55h3.45c.86,0,1.55.69,1.55,1.55s-.7,1.55-1.55,1.55Z"/><path class="cls-2" d="M184.66,97.47h-3.45c-.86,0-1.55-.69-1.55-1.55s.7-1.55,1.55-1.55h3.45c.86,0,1.55.7,1.55,1.55s-.7,1.55-1.55,1.55Z"/><path class="cls-2" d="M183.21,107.97h-3.45c-.86,0-1.55-.69-1.55-1.55s.7-1.55,1.55-1.55h3.45c.86,0,1.55.7,1.55,1.55s-.7,1.55-1.55,1.55Z"/><path class="cls-2" d="M181.97,118.48h-3.45c-.86,0-1.55-.69-1.55-1.55s.7-1.55,1.55-1.55h3.45c.86,0,1.55.69,1.55,1.55s-.7,1.55-1.55,1.55Z"/><path class="cls-2" d="M180.31,128.98h-3.45c-.86,0-1.55-.69-1.55-1.55s.7-1.55,1.55-1.55h3.45c.86,0,1.55.69,1.55,1.55s-.7,1.55-1.55,1.55Z"/><path class="cls-2" d="M178.86,139.49h-3.45c-.86,0-1.55-.69-1.55-1.55s.7-1.55,1.55-1.55h3.45c.86,0,1.55.69,1.55,1.55s-.7,1.55-1.55,1.55Z"/></g></svg>